<?xml version="1.0" encoding="UTF-8"?>
<svg width="24px" height="24px" viewBox="0 0 24 24" version="1.1" xmlns="http://www.w3.org/2000/svg" xmlns:xlink="http://www.w3.org/1999/xlink">
    <title>iconmonstr-globe-5</title>
    <g id="Page-1" stroke="none" stroke-width="1" fill="none" fill-rule="evenodd">
        <g id="iconmonstr-globe-5" fill="#FFFFFF" fill-rule="nonzero">
            <path d="M13.144,8.171 C13.109,8.105 13.486,8.069 13.553,8.069 C13.627,8.078 13.357,8.521 13.144,8.171 Z M10.992,5.099 L11.1,5.068 C11.164,5.123 11.028,5.163 11.049,5.204 C11.135,5.359 11.07,5.452 11.057,5.536 C11.043,5.621 10.953,5.584 10.908,5.629 C10.855,5.695 11.166,5.704 11.17,5.714 C11.181,5.747 10.795,5.803 10.866,5.885 C10.962,6.021 11.69,5.69 11.574,5.709 C11.799,5.596 11.603,5.584 11.477,5.519 C11.434,5.304 11.398,4.972 11.264,4.839 L11.352,4.737 C11.146,4.438 10.992,5.099 10.992,5.099 L10.992,5.099 Z M24,12 C24,18.627 18.627,24 12,24 C5.372,24 0,18.627 0,12 C0,5.373 5.372,0 12,0 C18.627,0 24,5.373 24,12 Z M15.69,6.629 C15.684,6.483 15.5,6.345 15.308,6.598 C15.173,6.772 15.197,7.037 15.124,7.155 C15.02,7.33 15.691,7.494 15.691,7.329 C15.716,7.052 16.423,7.266 16.561,7.304 C16.809,7.373 17.204,7.078 16.772,6.923 C16.417,6.793 16.23,6.654 16.198,6.4 C16.198,6.4 16.386,6.224 16.304,6.234 C16.086,6.261 15.69,7.02 15.69,6.629 L15.69,6.629 Z M21.986,12 C21.986,10.965 21.809,9.92 21.629,9.368 C21.571,9.194 21.44,9.056 21.27,8.99 C21.014,8.89 19.933,9.587 19.77,9.244 C19.663,9.015 19.446,9.39 19.198,9.252 C19.078,9.186 18.744,8.737 18.593,8.792 C18.284,8.903 19.067,9.756 19.281,9.868 C19.482,9.716 20.133,9.403 20.273,9.83 C20.541,10.634 19.536,11.515 19.022,11.979 C18.254,12.673 18.398,11.53 17.875,11.127 C17.6,10.916 17.603,10.467 17.325,10.312 C17.201,10.242 16.632,9.587 16.637,9.499 L16.62,9.665 C16.526,9.736 16.326,9.397 16.305,9.344 C16.305,9.639 16.785,10.109 16.944,10.345 C17.215,10.75 17.36,11.34 17.692,11.671 C17.87,11.849 18.55,12.585 18.727,12.569 C18.92,12.552 19.53,12.111 19.638,12.136 C20.282,12.288 18.122,15.341 17.917,15.719 C17.748,16.036 18.055,16.82 18.03,17.195 C18.001,17.628 17.66,17.768 17.337,18.004 C16.991,18.257 17.072,18.749 16.781,18.929 C16.264,19.247 15.892,20.282 15.158,20.277 C14.942,20.276 14.018,20.637 13.897,20.284 C13.803,20.028 13.677,19.834 13.544,19.581 C13.414,19.333 13.529,19.076 13.371,18.857 C13.262,18.705 12.896,18.36 12.863,18.18 C12.861,18.025 12.98,17.554 13.143,17.472 C13.372,17.355 13.187,17.014 13.159,16.816 C13.111,16.462 12.892,16.17 12.629,15.965 C12.24,15.666 12.441,15.428 12.532,15.001 C12.532,14.797 12.408,14.529 12.134,14.609 C11.57,14.773 11.741,14.169 11.33,14.196 C11.034,14.217 10.792,14.405 10.517,14.488 C10.171,14.592 9.817,14.406 9.475,14.363 C8.068,14.185 7.609,12.577 7.976,11.417 C8.013,11.227 7.862,10.875 7.928,10.728 C8.086,10.376 8.408,9.981 8.69,9.714 C8.848,9.564 9.051,9.602 9.237,9.485 C9.524,9.304 9.528,8.932 9.809,8.704 C10.209,8.379 10.755,8.386 11.277,8.316 C11.555,8.279 12.613,8.05 12.78,8.256 C12.78,8.294 12.971,8.86 12.761,8.828 C13.194,8.851 13.811,9.577 14.222,9.407 C14.433,9.319 14.356,8.671 14.789,8.984 C15.051,9.172 16.225,9.256 16.469,9.053 C16.619,8.929 16.703,8.123 16.521,8.032 C16.637,8.147 15.91,8.156 15.842,8.13 C15.722,8.086 15.61,8.244 15.417,8.155 C15.533,8.21 14.771,7.801 15.199,7.488 C15.02,7.619 14.853,7.451 14.66,7.595 C14.527,7.703 14.722,7.775 14.532,7.869 C14.23,8.022 14.002,7.344 13.888,7.267 C13.772,7.191 12.874,6.561 13.118,6.972 L13.907,7.757 C13.868,7.782 13.7,7.471 13.7,7.698 C13.753,7.563 13.72,8.277 13.596,8.045 C13.541,7.956 13.686,7.906 13.602,7.777 C13.602,7.692 13.374,7.609 13.33,7.551 C13.205,7.396 12.873,7.054 12.693,6.972 C12.643,6.949 11.929,7.059 11.869,7.082 C11.799,7.18 11.739,7.283 11.69,7.393 C11.542,7.448 11.403,7.519 11.271,7.607 L11.114,7.96 C11.046,8.021 10.349,8.251 10.345,8.26 C10.374,8.185 9.858,8.089 9.892,7.939 C9.93,7.774 10.105,7.259 10.06,7.071 C10.012,6.874 11.134,7.355 11.206,6.836 C11.235,6.611 11.252,6.349 10.893,6.311 C10.961,6.319 11.588,6.065 11.692,5.951 C11.838,5.783 12.173,5.509 12.416,5.509 C12.7,5.509 12.639,5.096 12.77,4.894 C12.901,4.947 12.7,5.27 12.857,5.401 C12.847,5.298 13.302,5.458 13.346,5.434 C13.45,5.38 14.03,5.412 13.94,5.14 C13.84,4.863 13.991,4.945 14.121,4.887 C14.099,4.896 14.461,4.268 14.523,4.474 C14.48,4.262 14.102,4.548 13.97,4.537 C13.665,4.513 13.794,4.017 13.909,3.872 C13.998,3.757 13.666,3.616 13.662,3.836 C13.656,4.165 13.35,4.463 13.421,4.9 C13.529,5.559 12.686,4.741 12.612,4.786 C12.332,4.956 12.103,4.572 12.248,4.342 C12.396,4.107 12.753,4.118 12.9,3.866 C13.004,3.688 13.125,3.481 13.285,3.346 C13.82,2.897 13.968,3.256 14.501,3.305 C15.022,3.353 14.677,3.429 14.605,3.629 C14.536,3.819 14.891,3.887 15.014,3.728 C15.084,3.636 15.243,3.405 15.312,3.234 C15.401,3.012 16.213,3.037 15.646,2.698 C15.272,2.475 13.642,2.026 12.55,2.026 C12.314,2.026 12.149,2.289 11.969,2.438 C11.613,2.733 10.701,3.312 10.194,3.136 C9.675,2.957 8.564,3.796 8.386,3.802 C8.321,3.806 8.39,3.168 8.744,3.121 C8.591,3.144 9.991,2.414 9.953,2.262 C9.907,2.082 7.154,3.084 7.277,3.285 C7.336,3.377 7.576,3.377 7.261,3.579 C7.081,3.688 6.889,4.38 6.72,4.38 C6.215,4.601 6.183,3.945 5.621,4.789 L4.727,5.149 C3.399,6.56 2.48,8.347 2.147,10.332 C2.134,10.411 2.481,10.558 2.526,10.612 C2.638,10.746 2.638,11.324 2.693,11.513 C2.831,11.991 3.172,12.257 3.433,12.692 C3.587,12.951 3.843,13.606 3.762,13.878 C3.87,13.7 4.832,14.693 5.008,14.9 C5.422,15.387 5.741,15.977 5.069,16.459 C4.852,16.615 5.399,17.588 5.117,17.827 L4.756,17.92 C4.4,18.139 4.561,18.676 4.777,18.902 C6.595,20.803 9.157,21.989 11.997,21.989 C17.514,21.989 21.986,17.517 21.986,12 L21.986,12 Z M10.479,5.643 C10.604,5.588 10.772,5.59 10.79,5.423 C10.805,5.275 10.834,5.377 10.87,5.323 C10.905,5.27 10.803,5.185 10.76,5.177 C10.696,5.163 10.652,5.246 10.611,5.281 L10.539,5.3 L10.471,5.387 L10.479,5.435 L10.392,5.541 C10.307,5.625 10.394,5.68 10.479,5.643 L10.479,5.643 Z" id="Shape"></path>
        </g>
    </g>
</svg>